<svg width="22" height="21" viewBox="0 0 22 21" fill="none" xmlns="http://www.w3.org/2000/svg">
<path d="M18.8983 2.60999C18.4393 2.099 17.8944 1.69364 17.2945 1.41708C16.6947 1.14052 16.0518 0.998169 15.4025 0.998169C14.7532 0.998169 14.1103 1.14052 13.5105 1.41708C12.9107 1.69364 12.3657 2.099 11.9067 2.60999L10.9541 3.66999L10.0015 2.60999C9.07438 1.5783 7.8169 0.998704 6.50572 0.998704C5.19453 0.998704 3.93705 1.5783 3.0099 2.60999C2.08276 3.64169 1.56189 5.04096 1.56189 6.49999C1.56189 7.95903 2.08276 9.3583 3.0099 10.39L3.96249 11.45L10.9541 19.23L17.9457 11.45L18.8983 10.39C19.3575 9.87924 19.7218 9.27281 19.9704 8.60535C20.2189 7.93789 20.3468 7.22248 20.3468 6.49999C20.3468 5.77751 20.2189 5.0621 19.9704 4.39464C19.7218 3.72718 19.3575 3.12075 18.8983 2.60999V2.60999Z" stroke="currentColor" stroke-width="2" stroke-linecap="round" stroke-linejoin="round"/>
</svg>
