<svg width="22" height="24" viewBox="0 0 22 24" fill="none" xmlns="http://www.w3.org/2000/svg">
<g clip-path="url(#clip0_6_48)">
<path d="M18.8393 4.61C18.3776 4.099 17.8294 3.69365 17.226 3.41708C16.6226 3.14052 15.9759 2.99817 15.3228 2.99817C14.6697 2.99817 14.0229 3.14052 13.4195 3.41708C12.8162 3.69365 12.268 4.099 11.8062 4.61L10.848 5.67L9.88975 4.61C8.9571 3.57831 7.69216 2.99871 6.37319 2.99871C5.05423 2.99871 3.78928 3.57831 2.85663 4.61C1.92398 5.64169 1.40002 7.04097 1.40002 8.5C1.40002 9.95903 1.92398 11.3583 2.85663 12.39L3.81487 13.45L10.848 21.23L17.8811 13.45L18.8393 12.39C19.3013 11.8792 19.6677 11.2728 19.9177 10.6054C20.1678 9.9379 20.2964 9.22249 20.2964 8.5C20.2964 7.77751 20.1678 7.0621 19.9177 6.39464C19.6677 5.72719 19.3013 5.12076 18.8393 4.61Z" fill="currentColor" stroke="currentColor" stroke-width="2" stroke-linecap="round" stroke-linejoin="round"/>
</g>
<defs>
<clipPath id="clip0_6_48">
<rect width="21.696" height="24" fill="white"/>
</clipPath>
</defs>
</svg>
