<svg width="24" height="23" viewBox="0 0 24 23" fill="none" xmlns="http://www.w3.org/2000/svg">
<path d="M8.74036 18.5V3.33333L22.8239 1V16.1667" stroke="currentColor" stroke-width="2" stroke-linecap="round" stroke-linejoin="round"/>
<path d="M5.21938 22C7.16392 22 8.74028 20.433 8.74028 18.5C8.74028 16.567 7.16392 15 5.21938 15C3.27484 15 1.69849 16.567 1.69849 18.5C1.69849 20.433 3.27484 22 5.21938 22Z" stroke="currentColor" stroke-width="2" stroke-linecap="round" stroke-linejoin="round"/>
<path d="M19.303 19.6667C21.2475 19.6667 22.8239 18.0997 22.8239 16.1667C22.8239 14.2337 21.2475 12.6667 19.303 12.6667C17.3585 12.6667 15.7821 14.2337 15.7821 16.1667C15.7821 18.0997 17.3585 19.6667 19.303 19.6667Z" stroke="currentColor" stroke-width="2" stroke-linecap="round" stroke-linejoin="round"/>
</svg>
